<svg width="207" height="49" viewBox="0 0 207 49" fill="none" xmlns="http://www.w3.org/2000/svg">
<path d="M22.9997 3C35.7026 3 45.9997 13.2971 45.9997 26V42.1C45.9997 43.93 45.2728 45.685 43.9788 46.979C42.6848 48.273 40.9297 49 39.0997 49H24.1497V38.9099C24.1497 36.6076 24.29 34.2225 25.4975 32.2629C26.362 30.8586 27.5185 29.6566 28.8884 28.7385C30.2583 27.8204 31.8096 27.2077 33.4371 26.9418L33.8776 26.8705C34.0592 26.8085 34.2168 26.6912 34.3284 26.5351C34.44 26.379 34.5 26.1919 34.5 26C34.5 25.8081 34.44 25.621 34.3284 25.4649C34.2168 25.3088 34.0592 25.1915 33.8776 25.1294L33.4371 25.0581C31.0591 24.6697 28.8632 23.5441 27.1594 21.8403C25.4556 20.1365 24.3301 17.9406 23.9416 15.5626L23.8703 15.1222C23.8082 14.9406 23.6909 14.7829 23.5348 14.6713C23.3787 14.5597 23.1916 14.4997 22.9997 14.4997C22.8078 14.4997 22.6208 14.5597 22.4647 14.6713C22.3086 14.7829 22.1913 14.9406 22.1292 15.1222L22.0579 15.5626C21.7922 17.1902 21.1795 18.7415 20.2614 20.1114C19.3433 21.4814 18.1412 22.6378 16.7368 23.5022C14.7772 24.7097 12.3921 24.85 10.0898 24.85H0.0273438C0.628794 12.6818 10.6832 3 22.9997 3Z" fill="#5F6FFF"/>
<path d="M0 27.15H10.0901C12.3924 27.15 14.7775 27.2903 16.7371 28.4978C18.2689 29.4417 19.5583 30.7311 20.5022 32.2629C21.7097 34.2225 21.85 36.6076 21.85 38.9099V49H6.9C5.07001 49 3.31496 48.273 2.02096 46.979C0.726962 45.685 0 43.93 0 42.1V27.15ZM46 5.3C46 5.91 45.7577 6.49501 45.3263 6.92635C44.895 7.35768 44.31 7.6 43.7 7.6C43.09 7.6 42.505 7.35768 42.0737 6.92635C41.6423 6.49501 41.4 5.91 41.4 5.3C41.4 4.69 41.6423 4.10499 42.0737 3.67365C42.505 3.24232 43.09 3 43.7 3C44.31 3 44.895 3.24232 45.3263 3.67365C45.7577 4.10499 46 4.69 46 5.3Z" fill="#5F6FFF"/>
<path d="M59.98 46V44.548H62.128C62.672 44.548 63.148 44.436 63.556 44.212C63.964 43.98 64.28 43.656 64.504 43.24C64.736 42.824 64.852 42.332 64.852 41.764C64.852 41.212 64.736 40.732 64.504 40.324C64.272 39.908 63.952 39.588 63.544 39.364C63.136 39.132 62.664 39.016 62.128 39.016H59.944V37.564H62.152C62.776 37.564 63.352 37.668 63.88 37.876C64.416 38.084 64.88 38.38 65.272 38.764C65.672 39.14 65.98 39.584 66.196 40.096C66.42 40.608 66.532 41.168 66.532 41.776C66.532 42.384 66.42 42.948 66.196 43.468C65.98 43.98 65.676 44.428 65.284 44.812C64.892 45.188 64.428 45.48 63.892 45.688C63.364 45.896 62.792 46 62.176 46H59.98ZM58.864 46V37.564H60.496V46H58.864ZM70.0848 46.12C69.5568 46.12 69.0808 45.988 68.6568 45.724C68.2328 45.46 67.9008 45.1 67.6608 44.644C67.4208 44.188 67.3008 43.676 67.3008 43.108C67.3008 42.532 67.4208 42.016 67.6608 41.56C67.9008 41.104 68.2328 40.744 68.6568 40.48C69.0808 40.216 69.5568 40.084 70.0848 40.084C70.5008 40.084 70.8728 40.168 71.2008 40.336C71.5288 40.504 71.7888 40.74 71.9808 41.044C72.1808 41.34 72.2888 41.676 72.3048 42.052V44.14C72.2888 44.524 72.1808 44.864 71.9808 45.16C71.7888 45.456 71.5288 45.692 71.2008 45.868C70.8728 46.036 70.5008 46.12 70.0848 46.12ZM70.3728 44.668C70.8128 44.668 71.1688 44.524 71.4408 44.236C71.7128 43.94 71.8488 43.56 71.8488 43.096C71.8488 42.792 71.7848 42.524 71.6568 42.292C71.5368 42.052 71.3648 41.868 71.1408 41.74C70.9248 41.604 70.6688 41.536 70.3728 41.536C70.0848 41.536 69.8288 41.604 69.6048 41.74C69.3888 41.868 69.2168 42.052 69.0888 42.292C68.9688 42.524 68.9088 42.792 68.9088 43.096C68.9088 43.408 68.9688 43.684 69.0888 43.924C69.2168 44.156 69.3888 44.34 69.6048 44.476C69.8288 44.604 70.0848 44.668 70.3728 44.668ZM71.7648 46V44.44L72.0168 43.024L71.7648 41.632V40.204H73.3248V46H71.7648ZM76.7075 46.132C76.3795 46.132 76.0555 46.088 75.7355 46C75.4235 45.912 75.1355 45.792 74.8715 45.64C74.6075 45.48 74.3795 45.288 74.1875 45.064L75.1235 44.116C75.3235 44.34 75.5555 44.508 75.8195 44.62C76.0835 44.732 76.3755 44.788 76.6955 44.788C76.9515 44.788 77.1435 44.752 77.2715 44.68C77.4075 44.608 77.4755 44.5 77.4755 44.356C77.4755 44.196 77.4035 44.072 77.2595 43.984C77.1235 43.896 76.9435 43.824 76.7195 43.768C76.4955 43.704 76.2595 43.636 76.0115 43.564C75.7715 43.484 75.5395 43.384 75.3155 43.264C75.0915 43.136 74.9075 42.964 74.7635 42.748C74.6275 42.524 74.5595 42.236 74.5595 41.884C74.5595 41.516 74.6475 41.196 74.8235 40.924C75.0075 40.652 75.2675 40.44 75.6035 40.288C75.9395 40.136 76.3355 40.06 76.7915 40.06C77.2715 40.06 77.7035 40.144 78.0875 40.312C78.4795 40.48 78.8035 40.732 79.0595 41.068L78.1115 42.016C77.9355 41.8 77.7355 41.644 77.5115 41.548C77.2955 41.452 77.0595 41.404 76.8035 41.404C76.5715 41.404 76.3915 41.44 76.2635 41.512C76.1435 41.584 76.0835 41.684 76.0835 41.812C76.0835 41.956 76.1515 42.068 76.2875 42.148C76.4315 42.228 76.6155 42.3 76.8395 42.364C77.0635 42.42 77.2955 42.488 77.5355 42.568C77.7835 42.64 78.0155 42.744 78.2315 42.88C78.4555 43.016 78.6355 43.196 78.7715 43.42C78.9155 43.644 78.9875 43.932 78.9875 44.284C78.9875 44.852 78.7835 45.304 78.3755 45.64C77.9675 45.968 77.4115 46.132 76.7075 46.132ZM83.9476 46V42.676C83.9476 42.332 83.8396 42.052 83.6236 41.836C83.4076 41.62 83.1276 41.512 82.7836 41.512C82.5596 41.512 82.3596 41.56 82.1836 41.656C82.0076 41.752 81.8676 41.888 81.7636 42.064C81.6676 42.24 81.6196 42.444 81.6196 42.676L81.0076 42.364C81.0076 41.908 81.1036 41.512 81.2956 41.176C81.4876 40.832 81.7516 40.564 82.0876 40.372C82.4316 40.18 82.8236 40.084 83.2636 40.084C83.7036 40.084 84.0916 40.18 84.4276 40.372C84.7716 40.564 85.0396 40.828 85.2316 41.164C85.4236 41.5 85.5196 41.888 85.5196 42.328V46H83.9476ZM80.0476 46V37.324H81.6196V46H80.0476ZM90.0018 46.12C89.5858 46.12 89.2098 46.032 88.8738 45.856C88.5378 45.68 88.2698 45.44 88.0698 45.136C87.8698 44.832 87.7618 44.492 87.7458 44.116V42.052C87.7618 41.676 87.8698 41.34 88.0698 41.044C88.2778 40.74 88.5498 40.504 88.8858 40.336C89.2218 40.168 89.5938 40.084 90.0018 40.084C90.5378 40.084 91.0178 40.216 91.4418 40.48C91.8658 40.744 92.1978 41.104 92.4378 41.56C92.6858 42.016 92.8098 42.532 92.8098 43.108C92.8098 43.676 92.6858 44.188 92.4378 44.644C92.1978 45.1 91.8658 45.46 91.4418 45.724C91.0178 45.988 90.5378 46.12 90.0018 46.12ZM89.7378 44.668C90.0258 44.668 90.2778 44.604 90.4938 44.476C90.7178 44.34 90.8898 44.156 91.0098 43.924C91.1378 43.684 91.2018 43.408 91.2018 43.096C91.2018 42.792 91.1378 42.524 91.0098 42.292C90.8898 42.052 90.7178 41.868 90.4938 41.74C90.2698 41.604 90.0138 41.536 89.7258 41.536C89.4378 41.536 89.1818 41.604 88.9578 41.74C88.7418 41.868 88.5698 42.052 88.4418 42.292C88.3218 42.524 88.2618 42.792 88.2618 43.096C88.2618 43.408 88.3218 43.684 88.4418 43.924C88.5698 44.156 88.7458 44.34 88.9698 44.476C89.1938 44.604 89.4498 44.668 89.7378 44.668ZM86.7858 46V37.324H88.3578V41.632L88.0938 43.024L88.3458 44.44V46H86.7858ZM96.5645 46.12C95.9805 46.12 95.4525 45.988 94.9805 45.724C94.5165 45.452 94.1445 45.088 93.8645 44.632C93.5925 44.168 93.4565 43.652 93.4565 43.084C93.4565 42.516 93.5925 42.008 93.8645 41.56C94.1365 41.104 94.5085 40.744 94.9805 40.48C95.4525 40.208 95.9765 40.072 96.5525 40.072C97.1445 40.072 97.6725 40.208 98.1365 40.48C98.6085 40.744 98.9805 41.104 99.2525 41.56C99.5245 42.008 99.6605 42.516 99.6605 43.084C99.6605 43.652 99.5245 44.168 99.2525 44.632C98.9805 45.088 98.6085 45.452 98.1365 45.724C97.6725 45.988 97.1485 46.12 96.5645 46.12ZM96.5525 44.656C96.8485 44.656 97.1085 44.592 97.3325 44.464C97.5645 44.328 97.7405 44.144 97.8605 43.912C97.9885 43.672 98.0525 43.4 98.0525 43.096C98.0525 42.792 97.9885 42.524 97.8605 42.292C97.7325 42.06 97.5565 41.88 97.3325 41.752C97.1085 41.616 96.8485 41.548 96.5525 41.548C96.2645 41.548 96.0085 41.616 95.7845 41.752C95.5605 41.88 95.3845 42.06 95.2565 42.292C95.1285 42.524 95.0645 42.792 95.0645 43.096C95.0645 43.4 95.1285 43.672 95.2565 43.912C95.3845 44.144 95.5605 44.328 95.7845 44.464C96.0085 44.592 96.2645 44.656 96.5525 44.656ZM103.097 46.12C102.569 46.12 102.093 45.988 101.669 45.724C101.245 45.46 100.913 45.1 100.673 44.644C100.433 44.188 100.313 43.676 100.313 43.108C100.313 42.532 100.433 42.016 100.673 41.56C100.913 41.104 101.245 40.744 101.669 40.48C102.093 40.216 102.569 40.084 103.097 40.084C103.513 40.084 103.885 40.168 104.213 40.336C104.541 40.504 104.801 40.74 104.993 41.044C105.193 41.34 105.301 41.676 105.317 42.052V44.14C105.301 44.524 105.193 44.864 104.993 45.16C104.801 45.456 104.541 45.692 104.213 45.868C103.885 46.036 103.513 46.12 103.097 46.12ZM103.385 44.668C103.825 44.668 104.181 44.524 104.453 44.236C104.725 43.94 104.861 43.56 104.861 43.096C104.861 42.792 104.797 42.524 104.669 42.292C104.549 42.052 104.377 41.868 104.153 41.74C103.937 41.604 103.681 41.536 103.385 41.536C103.097 41.536 102.841 41.604 102.617 41.74C102.401 41.868 102.229 42.052 102.101 42.292C101.981 42.524 101.921 42.792 101.921 43.096C101.921 43.408 101.981 43.684 102.101 43.924C102.229 44.156 102.401 44.34 102.617 44.476C102.841 44.604 103.097 44.668 103.385 44.668ZM104.777 46V44.44L105.029 43.024L104.777 41.632V40.204H106.337V46H104.777ZM107.727 46V40.204H109.299V46H107.727ZM109.299 42.796L108.687 42.388C108.759 41.676 108.967 41.116 109.311 40.708C109.655 40.292 110.151 40.084 110.799 40.084C111.079 40.084 111.331 40.132 111.555 40.228C111.779 40.316 111.983 40.464 112.167 40.672L111.183 41.8C111.095 41.704 110.987 41.632 110.859 41.584C110.739 41.536 110.599 41.512 110.439 41.512C110.103 41.512 109.827 41.62 109.611 41.836C109.403 42.044 109.299 42.364 109.299 42.796ZM115.003 46.12C114.467 46.12 113.987 45.988 113.563 45.724C113.139 45.46 112.803 45.1 112.555 44.644C112.315 44.188 112.195 43.676 112.195 43.108C112.195 42.532 112.315 42.016 112.555 41.56C112.803 41.104 113.135 40.744 113.551 40.48C113.975 40.216 114.459 40.084 115.003 40.084C115.419 40.084 115.791 40.168 116.119 40.336C116.455 40.504 116.723 40.74 116.923 41.044C117.131 41.34 117.243 41.676 117.259 42.052V44.116C117.243 44.492 117.135 44.832 116.935 45.136C116.735 45.44 116.467 45.68 116.131 45.856C115.795 46.032 115.419 46.12 115.003 46.12ZM115.267 44.668C115.563 44.668 115.819 44.604 116.035 44.476C116.259 44.34 116.431 44.156 116.551 43.924C116.679 43.684 116.743 43.408 116.743 43.096C116.743 42.792 116.679 42.524 116.551 42.292C116.431 42.052 116.259 41.868 116.035 41.74C115.819 41.604 115.567 41.536 115.279 41.536C114.983 41.536 114.723 41.604 114.499 41.74C114.283 41.876 114.111 42.06 113.983 42.292C113.863 42.524 113.803 42.792 113.803 43.096C113.803 43.408 113.863 43.684 113.983 43.924C114.111 44.156 114.287 44.34 114.511 44.476C114.735 44.604 114.987 44.668 115.267 44.668ZM118.219 46H116.659V44.44L116.911 43.024L116.647 41.632V37.324H118.219V46ZM123.322 42.868V41.536H125.278C125.534 41.536 125.766 41.484 125.974 41.38C126.182 41.276 126.346 41.128 126.466 40.936C126.586 40.736 126.646 40.496 126.646 40.216C126.646 39.944 126.586 39.708 126.466 39.508C126.346 39.308 126.182 39.156 125.974 39.052C125.766 38.948 125.534 38.896 125.278 38.896H123.322V37.564H125.446C125.982 37.564 126.462 37.672 126.886 37.888C127.318 38.104 127.658 38.412 127.906 38.812C128.154 39.204 128.278 39.672 128.278 40.216C128.278 40.76 128.154 41.232 127.906 41.632C127.658 42.024 127.318 42.328 126.886 42.544C126.462 42.76 125.982 42.868 125.446 42.868H123.322ZM122.122 46V37.564H123.754V46H122.122ZM131.503 46.12C130.975 46.12 130.499 45.988 130.075 45.724C129.651 45.46 129.319 45.1 129.079 44.644C128.839 44.188 128.719 43.676 128.719 43.108C128.719 42.532 128.839 42.016 129.079 41.56C129.319 41.104 129.651 40.744 130.075 40.48C130.499 40.216 130.975 40.084 131.503 40.084C131.919 40.084 132.291 40.168 132.619 40.336C132.947 40.504 133.207 40.74 133.399 41.044C133.599 41.34 133.707 41.676 133.723 42.052V44.14C133.707 44.524 133.599 44.864 133.399 45.16C133.207 45.456 132.947 45.692 132.619 45.868C132.291 46.036 131.919 46.12 131.503 46.12ZM131.791 44.668C132.231 44.668 132.587 44.524 132.859 44.236C133.131 43.94 133.267 43.56 133.267 43.096C133.267 42.792 133.203 42.524 133.075 42.292C132.955 42.052 132.783 41.868 132.559 41.74C132.343 41.604 132.087 41.536 131.791 41.536C131.503 41.536 131.247 41.604 131.023 41.74C130.807 41.868 130.635 42.052 130.507 42.292C130.387 42.524 130.327 42.792 130.327 43.096C130.327 43.408 130.387 43.684 130.507 43.924C130.635 44.156 130.807 44.34 131.023 44.476C131.247 44.604 131.503 44.668 131.791 44.668ZM133.183 46V44.44L133.435 43.024L133.183 41.632V40.204H134.743V46H133.183ZM140.034 46V42.676C140.034 42.332 139.926 42.052 139.71 41.836C139.494 41.62 139.214 41.512 138.87 41.512C138.646 41.512 138.446 41.56 138.27 41.656C138.094 41.752 137.954 41.888 137.85 42.064C137.754 42.24 137.706 42.444 137.706 42.676L137.094 42.364C137.094 41.908 137.19 41.512 137.382 41.176C137.582 40.832 137.854 40.564 138.198 40.372C138.55 40.18 138.946 40.084 139.386 40.084C139.81 40.084 140.19 40.192 140.526 40.408C140.862 40.616 141.126 40.892 141.318 41.236C141.51 41.572 141.605 41.936 141.605 42.328V46H140.034ZM136.134 46V40.204H137.706V46H136.134ZM145.644 46.12C145.036 46.12 144.496 45.992 144.024 45.736C143.552 45.472 143.176 45.112 142.896 44.656C142.624 44.2 142.488 43.68 142.488 43.096C142.488 42.52 142.62 42.008 142.884 41.56C143.156 41.104 143.524 40.744 143.988 40.48C144.452 40.208 144.968 40.072 145.536 40.072C146.096 40.072 146.588 40.2 147.012 40.456C147.444 40.704 147.78 41.048 148.02 41.488C148.268 41.92 148.392 42.412 148.392 42.964C148.392 43.068 148.384 43.176 148.368 43.288C148.36 43.392 148.34 43.512 148.308 43.648L143.436 43.66V42.484L147.576 42.472L146.94 42.964C146.924 42.62 146.86 42.332 146.748 42.1C146.644 41.868 146.488 41.692 146.28 41.572C146.08 41.444 145.832 41.38 145.536 41.38C145.224 41.38 144.952 41.452 144.72 41.596C144.488 41.732 144.308 41.928 144.18 42.184C144.06 42.432 144 42.728 144 43.072C144 43.424 144.064 43.732 144.192 43.996C144.328 44.252 144.52 44.452 144.768 44.596C145.016 44.732 145.304 44.8 145.632 44.8C145.928 44.8 146.196 44.752 146.436 44.656C146.676 44.552 146.884 44.4 147.06 44.2L147.984 45.124C147.704 45.452 147.36 45.7 146.952 45.868C146.552 46.036 146.116 46.12 145.644 46.12ZM149.364 46V37.324H150.936V46H149.364Z" fill="#5F5F5F"/>
<mask id="path-4-inside-1_2_10" fill="white">
<path d="M60.5803 13.8182H65.321L70.3281 26.0341H70.5412L75.5483 13.8182H80.2891V32H76.5604V20.1658H76.4094L71.7042 31.9112H69.1651L64.4599 20.1214H64.3089V32H60.5803V13.8182ZM89.5997 32.2663C88.197 32.2663 86.9896 31.9822 85.9775 31.4141C84.9714 30.84 84.1961 30.0291 83.6515 28.9815C83.107 27.928 82.8348 26.6822 82.8348 25.244C82.8348 23.8413 83.107 22.6102 83.6515 21.5508C84.1961 20.4914 84.9625 19.6657 85.9509 19.0739C86.9452 18.482 88.1112 18.1861 89.4488 18.1861C90.3484 18.1861 91.1859 18.3311 91.9612 18.6211C92.7425 18.9052 93.4231 19.3343 94.0031 19.9084C94.589 20.4825 95.0448 21.2045 95.3703 22.0746C95.6958 22.9387 95.8586 23.9508 95.8586 25.1108V26.1495H84.344V23.8058H92.2986C92.2986 23.2612 92.1802 22.7789 91.9434 22.3587C91.7067 21.9384 91.3782 21.61 90.958 21.3732C90.5437 21.1306 90.0613 21.0092 89.5109 21.0092C88.9368 21.0092 88.4278 21.1424 87.9839 21.4087C87.546 21.6692 87.2027 22.0213 86.9541 22.4652C86.7055 22.9032 86.5783 23.3915 86.5724 23.93V26.1584C86.5724 26.8331 86.6966 27.4161 86.9452 27.9073C87.1997 28.3986 87.5578 28.7773 88.0194 29.0437C88.4811 29.31 89.0286 29.4432 89.6618 29.4432C90.0821 29.4432 90.4668 29.384 90.816 29.2656C91.1652 29.1473 91.464 28.9697 91.7126 28.733C91.9612 28.4962 92.1506 28.2062 92.2808 27.8629L95.7787 28.0938C95.6011 28.9342 95.2371 29.6681 94.6867 30.2955C94.1422 30.9169 93.4379 31.4022 92.5738 31.7514C91.7156 32.0947 90.7242 32.2663 89.5997 32.2663ZM103.351 32.2219C102.316 32.2219 101.378 31.9556 100.537 31.4229C99.7027 30.8844 99.0398 30.0942 98.5486 29.0526C98.0632 28.005 97.8206 26.7206 97.8206 25.1996C97.8206 23.6371 98.0721 22.3379 98.5752 21.3022C99.0783 20.2605 99.7471 19.4822 100.582 18.9673C101.422 18.4465 102.342 18.1861 103.343 18.1861C104.106 18.1861 104.742 18.3163 105.251 18.5767C105.766 18.8312 106.181 19.1508 106.494 19.5355C106.814 19.9143 107.056 20.2872 107.222 20.6541H107.338V13.8182H111.111V32H107.382V29.8161H107.222C107.045 30.1948 106.793 30.5707 106.468 30.9435C106.148 31.3105 105.731 31.6153 105.216 31.858C104.707 32.1006 104.085 32.2219 103.351 32.2219ZM104.55 29.2124C105.16 29.2124 105.675 29.0466 106.095 28.7152C106.521 28.3778 106.846 27.9073 107.071 27.3036C107.302 26.6999 107.418 25.9927 107.418 25.1818C107.418 24.371 107.305 23.6667 107.08 23.0689C106.855 22.4711 106.53 22.0095 106.104 21.6839C105.677 21.3584 105.16 21.1957 104.55 21.1957C103.929 21.1957 103.405 21.3643 102.979 21.7017C102.552 22.0391 102.23 22.5066 102.011 23.1044C101.792 23.7022 101.682 24.3946 101.682 25.1818C101.682 25.9749 101.792 26.6763 102.011 27.2859C102.236 27.8896 102.558 28.363 102.979 28.7063C103.405 29.0437 103.929 29.2124 104.55 29.2124ZM114.22 32V18.3636H118.002V32H114.22ZM116.12 16.6058C115.558 16.6058 115.075 16.4194 114.673 16.0465C114.276 15.6677 114.078 15.215 114.078 14.6882C114.078 14.1674 114.276 13.7205 114.673 13.3477C115.075 12.9689 115.558 12.7795 116.12 12.7795C116.682 12.7795 117.162 12.9689 117.558 13.3477C117.961 13.7205 118.162 14.1674 118.162 14.6882C118.162 15.215 117.961 15.6677 117.558 16.0465C117.162 16.4194 116.682 16.6058 116.12 16.6058ZM120.41 16.9876V13.8182H135.343V16.9876H129.776V32H125.977V16.9876H120.41ZM141.968 32.2663C140.565 32.2663 139.358 31.9822 138.346 31.4141C137.34 30.84 136.564 30.0291 136.02 28.9815C135.475 27.928 135.203 26.6822 135.203 25.244C135.203 23.8413 135.475 22.6102 136.02 21.5508C136.564 20.4914 137.331 19.6657 138.319 19.0739C139.313 18.482 140.479 18.1861 141.817 18.1861C142.717 18.1861 143.554 18.3311 144.329 18.6211C145.111 18.9052 145.791 19.3343 146.371 19.9084C146.957 20.4825 147.413 21.2045 147.738 22.0746C148.064 22.9387 148.227 23.9508 148.227 25.1108V26.1495H136.712V23.8058H144.667C144.667 23.2612 144.548 22.7789 144.312 22.3587C144.075 21.9384 143.746 21.61 143.326 21.3732C142.912 21.1306 142.43 21.0092 141.879 21.0092C141.305 21.0092 140.796 21.1424 140.352 21.4087C139.914 21.6692 139.571 22.0213 139.322 22.4652C139.074 22.9032 138.946 23.3915 138.941 23.93V26.1584C138.941 26.8331 139.065 27.4161 139.313 27.9073C139.568 28.3986 139.926 28.7773 140.388 29.0437C140.849 29.31 141.397 29.4432 142.03 29.4432C142.45 29.4432 142.835 29.384 143.184 29.2656C143.533 29.1473 143.832 28.9697 144.081 28.733C144.329 28.4962 144.519 28.2062 144.649 27.8629L148.147 28.0938C147.969 28.9342 147.605 29.6681 147.055 30.2955C146.51 30.9169 145.806 31.4022 144.942 31.7514C144.084 32.0947 143.092 32.2663 141.968 32.2663ZM156.856 32.2663C155.459 32.2663 154.258 31.9704 153.252 31.3786C152.251 30.7808 151.482 29.9522 150.943 28.8928C150.411 27.8333 150.144 26.6141 150.144 25.2351C150.144 23.8383 150.414 22.6132 150.952 21.5597C151.497 20.5002 152.269 19.6746 153.269 19.0827C154.27 18.485 155.459 18.1861 156.838 18.1861C158.028 18.1861 159.07 18.4021 159.963 18.8342C160.857 19.2662 161.564 19.8729 162.085 20.6541C162.606 21.4354 162.893 22.3527 162.946 23.4062H159.377C159.277 22.7256 159.01 22.1781 158.578 21.7638C158.152 21.3436 157.593 21.1335 156.9 21.1335C156.314 21.1335 155.802 21.2933 155.365 21.6129C154.932 21.9266 154.595 22.3853 154.352 22.989C154.11 23.5927 153.988 24.3236 153.988 25.1818C153.988 26.0518 154.107 26.7917 154.344 27.4013C154.586 28.0109 154.927 28.4755 155.365 28.7951C155.802 29.1147 156.314 29.2745 156.9 29.2745C157.332 29.2745 157.72 29.1857 158.063 29.0082C158.413 28.8306 158.7 28.5732 158.925 28.2358C159.155 27.8925 159.306 27.4812 159.377 27.0018H162.946C162.887 28.0434 162.603 28.9608 162.094 29.7539C161.591 30.5411 160.895 31.1566 160.008 31.6005C159.12 32.0444 158.069 32.2663 156.856 32.2663ZM169.15 24.1165V32H165.368V13.8182H169.043V20.7695H169.203C169.511 19.9646 170.008 19.3343 170.694 18.8786C171.381 18.4169 172.242 18.1861 173.278 18.1861C174.225 18.1861 175.05 18.3932 175.755 18.8075C176.465 19.2159 177.015 19.8048 177.406 20.5742C177.803 21.3377 177.998 22.2521 177.992 23.3175V32H174.21V23.9922C174.216 23.1518 174.003 22.4978 173.571 22.0302C173.145 21.5626 172.547 21.3288 171.777 21.3288C171.263 21.3288 170.807 21.4383 170.41 21.6573C170.02 21.8763 169.712 22.1959 169.487 22.6161C169.268 23.0304 169.156 23.5305 169.15 24.1165Z"/>
</mask>
<path d="M60.5803 13.8182H65.321L70.3281 26.0341H70.5412L75.5483 13.8182H80.2891V32H76.5604V20.1658H76.4094L71.7042 31.9112H69.1651L64.4599 20.1214H64.3089V32H60.5803V13.8182ZM89.5997 32.2663C88.197 32.2663 86.9896 31.9822 85.9775 31.4141C84.9714 30.84 84.1961 30.0291 83.6515 28.9815C83.107 27.928 82.8348 26.6822 82.8348 25.244C82.8348 23.8413 83.107 22.6102 83.6515 21.5508C84.1961 20.4914 84.9625 19.6657 85.9509 19.0739C86.9452 18.482 88.1112 18.1861 89.4488 18.1861C90.3484 18.1861 91.1859 18.3311 91.9612 18.6211C92.7425 18.9052 93.4231 19.3343 94.0031 19.9084C94.589 20.4825 95.0448 21.2045 95.3703 22.0746C95.6958 22.9387 95.8586 23.9508 95.8586 25.1108V26.1495H84.344V23.8058H92.2986C92.2986 23.2612 92.1802 22.7789 91.9434 22.3587C91.7067 21.9384 91.3782 21.61 90.958 21.3732C90.5437 21.1306 90.0613 21.0092 89.5109 21.0092C88.9368 21.0092 88.4278 21.1424 87.9839 21.4087C87.546 21.6692 87.2027 22.0213 86.9541 22.4652C86.7055 22.9032 86.5783 23.3915 86.5724 23.93V26.1584C86.5724 26.8331 86.6966 27.4161 86.9452 27.9073C87.1997 28.3986 87.5578 28.7773 88.0194 29.0437C88.4811 29.31 89.0286 29.4432 89.6618 29.4432C90.0821 29.4432 90.4668 29.384 90.816 29.2656C91.1652 29.1473 91.464 28.9697 91.7126 28.733C91.9612 28.4962 92.1506 28.2062 92.2808 27.8629L95.7787 28.0938C95.6011 28.9342 95.2371 29.6681 94.6867 30.2955C94.1422 30.9169 93.4379 31.4022 92.5738 31.7514C91.7156 32.0947 90.7242 32.2663 89.5997 32.2663ZM103.351 32.2219C102.316 32.2219 101.378 31.9556 100.537 31.4229C99.7027 30.8844 99.0398 30.0942 98.5486 29.0526C98.0632 28.005 97.8206 26.7206 97.8206 25.1996C97.8206 23.6371 98.0721 22.3379 98.5752 21.3022C99.0783 20.2605 99.7471 19.4822 100.582 18.9673C101.422 18.4465 102.342 18.1861 103.343 18.1861C104.106 18.1861 104.742 18.3163 105.251 18.5767C105.766 18.8312 106.181 19.1508 106.494 19.5355C106.814 19.9143 107.056 20.2872 107.222 20.6541H107.338V13.8182H111.111V32H107.382V29.8161H107.222C107.045 30.1948 106.793 30.5707 106.468 30.9435C106.148 31.3105 105.731 31.6153 105.216 31.858C104.707 32.1006 104.085 32.2219 103.351 32.2219ZM104.55 29.2124C105.16 29.2124 105.675 29.0466 106.095 28.7152C106.521 28.3778 106.846 27.9073 107.071 27.3036C107.302 26.6999 107.418 25.9927 107.418 25.1818C107.418 24.371 107.305 23.6667 107.08 23.0689C106.855 22.4711 106.53 22.0095 106.104 21.6839C105.677 21.3584 105.16 21.1957 104.55 21.1957C103.929 21.1957 103.405 21.3643 102.979 21.7017C102.552 22.0391 102.23 22.5066 102.011 23.1044C101.792 23.7022 101.682 24.3946 101.682 25.1818C101.682 25.9749 101.792 26.6763 102.011 27.2859C102.236 27.8896 102.558 28.363 102.979 28.7063C103.405 29.0437 103.929 29.2124 104.55 29.2124ZM114.22 32V18.3636H118.002V32H114.22ZM116.12 16.6058C115.558 16.6058 115.075 16.4194 114.673 16.0465C114.276 15.6677 114.078 15.215 114.078 14.6882C114.078 14.1674 114.276 13.7205 114.673 13.3477C115.075 12.9689 115.558 12.7795 116.12 12.7795C116.682 12.7795 117.162 12.9689 117.558 13.3477C117.961 13.7205 118.162 14.1674 118.162 14.6882C118.162 15.215 117.961 15.6677 117.558 16.0465C117.162 16.4194 116.682 16.6058 116.12 16.6058ZM120.41 16.9876V13.8182H135.343V16.9876H129.776V32H125.977V16.9876H120.41ZM141.968 32.2663C140.565 32.2663 139.358 31.9822 138.346 31.4141C137.34 30.84 136.564 30.0291 136.02 28.9815C135.475 27.928 135.203 26.6822 135.203 25.244C135.203 23.8413 135.475 22.6102 136.02 21.5508C136.564 20.4914 137.331 19.6657 138.319 19.0739C139.313 18.482 140.479 18.1861 141.817 18.1861C142.717 18.1861 143.554 18.3311 144.329 18.6211C145.111 18.9052 145.791 19.3343 146.371 19.9084C146.957 20.4825 147.413 21.2045 147.738 22.0746C148.064 22.9387 148.227 23.9508 148.227 25.1108V26.1495H136.712V23.8058H144.667C144.667 23.2612 144.548 22.7789 144.312 22.3587C144.075 21.9384 143.746 21.61 143.326 21.3732C142.912 21.1306 142.43 21.0092 141.879 21.0092C141.305 21.0092 140.796 21.1424 140.352 21.4087C139.914 21.6692 139.571 22.0213 139.322 22.4652C139.074 22.9032 138.946 23.3915 138.941 23.93V26.1584C138.941 26.8331 139.065 27.4161 139.313 27.9073C139.568 28.3986 139.926 28.7773 140.388 29.0437C140.849 29.31 141.397 29.4432 142.03 29.4432C142.45 29.4432 142.835 29.384 143.184 29.2656C143.533 29.1473 143.832 28.9697 144.081 28.733C144.329 28.4962 144.519 28.2062 144.649 27.8629L148.147 28.0938C147.969 28.9342 147.605 29.6681 147.055 30.2955C146.51 30.9169 145.806 31.4022 144.942 31.7514C144.084 32.0947 143.092 32.2663 141.968 32.2663ZM156.856 32.2663C155.459 32.2663 154.258 31.9704 153.252 31.3786C152.251 30.7808 151.482 29.9522 150.943 28.8928C150.411 27.8333 150.144 26.6141 150.144 25.2351C150.144 23.8383 150.414 22.6132 150.952 21.5597C151.497 20.5002 152.269 19.6746 153.269 19.0827C154.27 18.485 155.459 18.1861 156.838 18.1861C158.028 18.1861 159.07 18.4021 159.963 18.8342C160.857 19.2662 161.564 19.8729 162.085 20.6541C162.606 21.4354 162.893 22.3527 162.946 23.4062H159.377C159.277 22.7256 159.01 22.1781 158.578 21.7638C158.152 21.3436 157.593 21.1335 156.9 21.1335C156.314 21.1335 155.802 21.2933 155.365 21.6129C154.932 21.9266 154.595 22.3853 154.352 22.989C154.11 23.5927 153.988 24.3236 153.988 25.1818C153.988 26.0518 154.107 26.7917 154.344 27.4013C154.586 28.0109 154.927 28.4755 155.365 28.7951C155.802 29.1147 156.314 29.2745 156.9 29.2745C157.332 29.2745 157.72 29.1857 158.063 29.0082C158.413 28.8306 158.7 28.5732 158.925 28.2358C159.155 27.8925 159.306 27.4812 159.377 27.0018H162.946C162.887 28.0434 162.603 28.9608 162.094 29.7539C161.591 30.5411 160.895 31.1566 160.008 31.6005C159.12 32.0444 158.069 32.2663 156.856 32.2663ZM169.15 24.1165V32H165.368V13.8182H169.043V20.7695H169.203C169.511 19.9646 170.008 19.3343 170.694 18.8786C171.381 18.4169 172.242 18.1861 173.278 18.1861C174.225 18.1861 175.05 18.3932 175.755 18.8075C176.465 19.2159 177.015 19.8048 177.406 20.5742C177.803 21.3377 177.998 22.2521 177.992 23.3175V32H174.21V23.9922C174.216 23.1518 174.003 22.4978 173.571 22.0302C173.145 21.5626 172.547 21.3288 171.777 21.3288C171.263 21.3288 170.807 21.4383 170.41 21.6573C170.02 21.8763 169.712 22.1959 169.487 22.6161C169.268 23.0304 169.156 23.5305 169.15 24.1165Z" fill="#000B62"/>
<path d="M60.5803 13.8182V12.8182H59.5803V13.8182H60.5803ZM65.321 13.8182L66.2463 13.4389L65.9919 12.8182H65.321V13.8182ZM70.3281 26.0341L69.4028 26.4134L69.6573 27.0341H70.3281V26.0341ZM70.5412 26.0341V27.0341H71.2121L71.4665 26.4134L70.5412 26.0341ZM75.5483 13.8182V12.8182H74.8774L74.623 13.4389L75.5483 13.8182ZM80.2891 13.8182H81.2891V12.8182H80.2891V13.8182ZM80.2891 32V33H81.2891V32H80.2891ZM76.5604 32H75.5604V33H76.5604V32ZM76.5604 20.1658H77.5604V19.1658H76.5604V20.1658ZM76.4094 20.1658V19.1658H75.7328L75.4812 19.794L76.4094 20.1658ZM71.7042 31.9112V32.9112H72.3808L72.6325 32.2831L71.7042 31.9112ZM69.1651 31.9112L68.2364 32.2819L68.4875 32.9112H69.1651V31.9112ZM64.4599 20.1214L65.3886 19.7508L65.1375 19.1214H64.4599V20.1214ZM64.3089 20.1214V19.1214H63.3089V20.1214H64.3089ZM64.3089 32V33H65.3089V32H64.3089ZM60.5803 32H59.5803V33H60.5803V32ZM60.5803 13.8182V14.8182H65.321V13.8182V12.8182H60.5803V13.8182ZM65.321 13.8182L64.3957 14.1974L69.4028 26.4134L70.3281 26.0341L71.2534 25.6548L66.2463 13.4389L65.321 13.8182ZM70.3281 26.0341V27.0341H70.5412V26.0341V25.0341H70.3281V26.0341ZM70.5412 26.0341L71.4665 26.4134L76.4736 14.1974L75.5483 13.8182L74.623 13.4389L69.6159 25.6548L70.5412 26.0341ZM75.5483 13.8182V14.8182H80.2891V13.8182V12.8182H75.5483V13.8182ZM80.2891 13.8182H79.2891V32H80.2891H81.2891V13.8182H80.2891ZM80.2891 32V31H76.5604V32V33H80.2891V32ZM76.5604 32H77.5604V20.1658H76.5604H75.5604V32H76.5604ZM76.5604 20.1658V19.1658H76.4094V20.1658V21.1658H76.5604V20.1658ZM76.4094 20.1658L75.4812 19.794L70.7759 31.5393L71.7042 31.9112L72.6325 32.2831L77.3377 20.5377L76.4094 20.1658ZM71.7042 31.9112V30.9112H69.1651V31.9112V32.9112H71.7042V31.9112ZM69.1651 31.9112L70.0939 31.5406L65.3886 19.7508L64.4599 20.1214L63.5311 20.4921L68.2364 32.2819L69.1651 31.9112ZM64.4599 20.1214V19.1214H64.3089V20.1214V21.1214H64.4599V20.1214ZM64.3089 20.1214H63.3089V32H64.3089H65.3089V20.1214H64.3089ZM64.3089 32V31H60.5803V32V33H64.3089V32ZM60.5803 32H61.5803V13.8182H60.5803H59.5803V32H60.5803ZM85.9775 31.4141L85.4819 32.2826L85.488 32.286L85.9775 31.4141ZM83.6515 28.9815L82.7632 29.4407L82.7642 29.4427L83.6515 28.9815ZM83.6515 21.5508L82.7621 21.0937L82.7621 21.0937L83.6515 21.5508ZM85.9509 19.0739L85.4394 18.2146L85.4372 18.2159L85.9509 19.0739ZM91.9612 18.6211L91.6108 19.5578L91.6195 19.5609L91.9612 18.6211ZM94.0031 19.9084L93.2996 20.6191L93.3033 20.6227L94.0031 19.9084ZM95.3703 22.0746L94.4337 22.425L94.4345 22.4271L95.3703 22.0746ZM95.8586 26.1495V27.1495H96.8586V26.1495H95.8586ZM84.344 26.1495H83.344V27.1495H84.344V26.1495ZM84.344 23.8058V22.8058H83.344V23.8058H84.344ZM92.2986 23.8058V24.8058H93.2986V23.8058H92.2986ZM91.9434 22.3587L91.0722 22.8495L91.0722 22.8495L91.9434 22.3587ZM90.958 21.3732L90.4526 22.2361L90.4598 22.2404L90.4672 22.2445L90.958 21.3732ZM87.9839 21.4087L88.495 22.2683L88.4984 22.2662L87.9839 21.4087ZM86.9541 22.4652L87.8238 22.9588L87.8266 22.9538L86.9541 22.4652ZM86.5724 23.93L85.5724 23.9191V23.93H86.5724ZM86.9452 27.9073L86.0529 28.3588L86.0573 28.3673L86.9452 27.9073ZM90.816 29.2656L90.4949 28.3186L90.4949 28.3186L90.816 29.2656ZM91.7126 28.733L91.023 28.0088L91.023 28.0088L91.7126 28.733ZM92.2808 27.8629L92.3467 26.8651L91.6083 26.8164L91.3458 27.5083L92.2808 27.8629ZM95.7787 28.0938L96.7571 28.3005L96.9955 27.1719L95.8445 27.0959L95.7787 28.0938ZM94.6867 30.2955L93.935 29.6359L93.9346 29.6364L94.6867 30.2955ZM92.5738 31.7514L92.9452 32.6799L92.9484 32.6786L92.5738 31.7514ZM89.5997 32.2663V31.2663C88.3328 31.2663 87.3014 31.0105 86.4671 30.5421L85.9775 31.4141L85.488 32.286C86.6778 32.954 88.0612 33.2663 89.5997 33.2663V32.2663ZM85.9775 31.4141L86.4731 30.5455C85.6374 30.0686 84.9965 29.4008 84.5388 28.5203L83.6515 28.9815L82.7642 29.4427C83.3956 30.6575 84.3054 31.6113 85.482 32.2826L85.9775 31.4141ZM83.6515 28.9815L84.5399 28.5224C84.0828 27.6379 83.8348 26.556 83.8348 25.244H82.8348H81.8348C81.8348 26.8083 82.1313 28.2181 82.7632 29.4407L83.6515 28.9815ZM82.8348 25.244H83.8348C83.8348 23.9721 84.081 22.9028 84.5409 22.0079L83.6515 21.5508L82.7621 21.0937C82.1331 22.3176 81.8348 23.7104 81.8348 25.244H82.8348ZM83.6515 21.5508L84.5409 22.0079C85.0032 21.1086 85.6421 20.4244 86.4646 19.9318L85.9509 19.0739L85.4372 18.2159C84.283 18.9071 83.3889 19.8741 82.7621 21.0937L83.6515 21.5508ZM85.9509 19.0739L86.4624 19.9332C87.2792 19.447 88.2627 19.1861 89.4488 19.1861V18.1861V17.1861C87.9596 17.1861 86.6112 17.5171 85.4394 18.2146L85.9509 19.0739ZM89.4488 18.1861V19.1861C90.2392 19.1861 90.9569 19.3131 91.6109 19.5577L91.9612 18.6211L92.3115 17.6845C91.4148 17.3491 90.4576 17.1861 89.4488 17.1861V18.1861ZM91.9612 18.6211L91.6195 19.5609C92.2676 19.7966 92.8242 20.1485 93.2996 20.6191L94.0031 19.9084L94.7066 19.1977C94.022 18.52 93.2173 18.0138 92.3029 17.6813L91.9612 18.6211ZM94.0031 19.9084L93.3033 20.6227C93.7715 21.0815 94.1527 21.6739 94.4337 22.425L95.3703 22.0746L96.3069 21.7241C95.9369 20.7352 95.4066 19.8835 94.703 19.1941L94.0031 19.9084ZM95.3703 22.0746L94.4345 22.4271C94.7082 23.1538 94.8586 24.0416 94.8586 25.1108H95.8586H96.8586C96.8586 23.86 96.6834 22.7236 96.3061 21.722L95.3703 22.0746ZM95.8586 25.1108H94.8586V26.1495H95.8586H96.8586V25.1108H95.8586ZM95.8586 26.1495V25.1495H84.344V26.1495V27.1495H95.8586V26.1495ZM84.344 26.1495H85.344V23.8058H84.344H83.344V26.1495H84.344ZM84.344 23.8058V24.8058H92.2986V23.8058V22.8058H84.344V23.8058ZM92.2986 23.8058H93.2986C93.2986 23.1118 93.1463 22.4564 92.8147 21.8678L91.9434 22.3587L91.0722 22.8495C91.2141 23.1014 91.2986 23.4106 91.2986 23.8058H92.2986ZM91.9434 22.3587L92.8147 21.8678C92.4883 21.2884 92.0282 20.8284 91.4489 20.502L90.958 21.3732L90.4672 22.2445C90.7282 22.3915 90.9251 22.5885 91.0722 22.8495L91.9434 22.3587ZM90.958 21.3732L91.4634 20.5103C90.8745 20.1654 90.2126 20.0092 89.5109 20.0092V21.0092V22.0092C89.9101 22.0092 90.2129 22.0957 90.4526 22.2361L90.958 21.3732ZM89.5109 21.0092V20.0092C88.7759 20.0092 88.0853 20.1817 87.4694 20.5512L87.9839 21.4087L88.4984 22.2662C88.7704 22.1031 89.0977 22.0092 89.5109 22.0092V21.0092ZM87.9839 21.4087L87.4729 20.5492C86.8842 20.8992 86.4161 21.3792 86.0816 21.9766L86.9541 22.4652L87.8266 22.9538C87.9892 22.6634 88.2077 22.4391 88.495 22.2683L87.9839 21.4087ZM86.9541 22.4652L86.0844 21.9716C85.7465 22.567 85.5801 23.2233 85.5724 23.9191L86.5724 23.93L87.5723 23.941C87.5765 23.5596 87.6646 23.2393 87.8238 22.9588L86.9541 22.4652ZM86.5724 23.93H85.5724V26.1584H86.5724H87.5724V23.93H86.5724ZM86.5724 26.1584H85.5724C85.5724 26.9552 85.7193 27.6995 86.053 28.3588L86.9452 27.9073L87.8375 27.4558C87.6739 27.1326 87.5724 26.711 87.5724 26.1584H86.5724ZM86.9452 27.9073L86.0573 28.3673C86.3962 29.0215 86.886 29.5443 87.5197 29.9099L88.0194 29.0437L88.5192 28.1775C88.2296 28.0104 88.0032 27.7756 87.8331 27.4473L86.9452 27.9073ZM88.0194 29.0437L87.5197 29.9099C88.1597 30.2791 88.8863 30.4432 89.6618 30.4432V29.4432V28.4432C89.1708 28.4432 88.8025 28.341 88.5192 28.1775L88.0194 29.0437ZM89.6618 29.4432V30.4432C90.1762 30.4432 90.6711 30.3706 91.137 30.2127L90.816 29.2656L90.4949 28.3186C90.2625 28.3974 89.9879 28.4432 89.6618 28.4432V29.4432ZM90.816 29.2656L91.137 30.2127C91.6134 30.0512 92.0408 29.8013 92.4023 29.4571L91.7126 28.733L91.023 28.0088C90.8873 28.1381 90.7169 28.2433 90.4949 28.3186L90.816 29.2656ZM91.7126 28.733L92.4023 29.4571C92.7667 29.11 93.0363 28.6909 93.2158 28.2176L92.2808 27.8629L91.3458 27.5083C91.2649 27.7215 91.1557 27.8824 91.023 28.0088L91.7126 28.733ZM92.2808 27.8629L92.215 28.8608L95.7128 29.0916L95.7787 28.0938L95.8445 27.0959L92.3467 26.8651L92.2808 27.8629ZM95.7787 28.0938L94.8003 27.887C94.6571 28.5647 94.3689 29.1414 93.935 29.6359L94.6867 30.2955L95.4384 30.955C96.1054 30.1947 96.5451 29.3037 96.7571 28.3005L95.7787 28.0938ZM94.6867 30.2955L93.9346 29.6364C93.5057 30.1259 92.9369 30.5261 92.1991 30.8243L92.5738 31.7514L92.9484 32.6786C93.9389 32.2783 94.7787 31.7079 95.4388 30.9545L94.6867 30.2955ZM92.5738 31.7514L92.2024 30.8229C91.4849 31.1099 90.6238 31.2663 89.5997 31.2663V32.2663V33.2663C90.8246 33.2663 91.9463 33.0794 92.9452 32.6799L92.5738 31.7514ZM100.537 31.4229L99.9949 32.2632L100.002 32.2676L100.537 31.4229ZM98.5486 29.0526L97.6412 29.4729L97.6441 29.4791L98.5486 29.0526ZM98.5752 21.3022L99.4747 21.7391L99.4757 21.7371L98.5752 21.3022ZM100.582 18.9673L101.107 19.8184L101.108 19.8173L100.582 18.9673ZM105.251 18.5767L104.796 19.467L104.808 19.4732L105.251 18.5767ZM106.494 19.5355L105.719 20.1674L105.725 20.174L105.73 20.1804L106.494 19.5355ZM107.222 20.6541L106.311 21.0657L106.577 21.6541H107.222V20.6541ZM107.338 20.6541V21.6541H108.338V20.6541H107.338ZM107.338 13.8182V12.8182H106.338V13.8182H107.338ZM111.111 13.8182H112.111V12.8182H111.111V13.8182ZM111.111 32V33H112.111V32H111.111ZM107.382 32H106.382V33H107.382V32ZM107.382 29.8161H108.382V28.8161H107.382V29.8161ZM107.222 29.8161V28.8161H106.587L106.317 29.3916L107.222 29.8161ZM106.468 30.9435L105.714 30.2859L105.714 30.2868L106.468 30.9435ZM105.216 31.858L104.79 30.9534L104.785 30.9553L105.216 31.858ZM106.095 28.7152L106.714 29.5004L106.715 29.4992L106.095 28.7152ZM107.071 27.3036L106.137 26.9465L106.134 26.9545L107.071 27.3036ZM107.08 23.0689L108.016 22.7168L108.016 22.7168L107.08 23.0689ZM102.979 21.7017L102.358 20.9177L102.358 20.9177L102.979 21.7017ZM102.011 27.2859L101.07 27.624L101.074 27.635L102.011 27.2859ZM102.979 28.7063L102.346 29.4808L102.352 29.4856L102.358 29.4904L102.979 28.7063ZM103.351 32.2219V31.2219C102.497 31.2219 101.746 31.0052 101.073 30.5783L100.537 31.4229L100.002 32.2676C101.009 32.906 102.134 33.2219 103.351 33.2219V32.2219ZM100.537 31.4229L101.079 30.5827C100.426 30.1608 99.8775 29.5261 99.453 28.626L98.5486 29.0526L97.6441 29.4791C98.2021 30.6623 98.9797 31.6079 99.9949 32.2631L100.537 31.4229ZM98.5486 29.0526L99.4559 28.6322C99.0478 27.7512 98.8206 26.6195 98.8206 25.1996H97.8206H96.8206C96.8206 26.8218 97.0787 28.2588 97.6412 29.4729L98.5486 29.0526ZM97.8206 25.1996H98.8206C98.8206 23.7372 99.057 22.5991 99.4747 21.7391L98.5752 21.3022L97.6757 20.8653C97.0872 22.0768 96.8206 23.5369 96.8206 25.1996H97.8206ZM98.5752 21.3022L99.4757 21.7371C99.911 20.8358 100.462 20.2164 101.107 19.8184L100.582 18.9673L100.056 18.1163C99.0325 18.7481 98.2456 19.6853 97.6747 20.8673L98.5752 21.3022ZM100.582 18.9673L101.108 19.8173C101.789 19.3957 102.526 19.1861 103.343 19.1861V18.1861V17.1861C102.159 17.1861 101.055 17.4972 100.055 18.1173L100.582 18.9673ZM103.343 18.1861V19.1861C103.999 19.1861 104.467 19.2987 104.796 19.467L105.251 18.5767L105.707 17.6865C105.018 17.3339 104.214 17.1861 103.343 17.1861V18.1861ZM105.251 18.5767L104.808 19.4732C105.215 19.6742 105.509 19.9098 105.719 20.1674L106.494 19.5355L107.269 18.9036C106.852 18.3918 106.318 17.9882 105.694 17.6802L105.251 18.5767ZM106.494 19.5355L105.73 20.1804C106.003 20.5042 106.191 20.7997 106.311 21.0657L107.222 20.6541L108.134 20.2425C107.922 19.7746 107.625 19.3244 107.259 18.8906L106.494 19.5355ZM107.222 20.6541V21.6541H107.338V20.6541V19.6541H107.222V20.6541ZM107.338 20.6541H108.338V13.8182H107.338H106.338V20.6541H107.338ZM107.338 13.8182V14.8182H111.111V13.8182V12.8182H107.338V13.8182ZM111.111 13.8182H110.111V32H111.111H112.111V13.8182H111.111ZM111.111 32V31H107.382V32V33H111.111V32ZM107.382 32H108.382V29.8161H107.382H106.382V32H107.382ZM107.382 29.8161V28.8161H107.222V29.8161V30.8161H107.382V29.8161ZM107.222 29.8161L106.317 29.3916C106.185 29.6722 105.989 29.9708 105.714 30.2859L106.468 30.9435L107.221 31.6012C107.597 31.1705 107.904 30.7175 108.128 30.2405L107.222 29.8161ZM106.468 30.9435L105.714 30.2868C105.499 30.5331 105.2 30.7598 104.79 30.9534L105.216 31.858L105.642 32.7625C106.261 32.4708 106.797 32.0879 107.222 31.6003L106.468 30.9435ZM105.216 31.858L104.785 30.9553C104.445 31.1176 103.98 31.2219 103.351 31.2219V32.2219V33.2219C104.191 33.2219 104.969 33.0836 105.646 32.7606L105.216 31.858ZM104.55 29.2124V30.2124C105.351 30.2124 106.093 29.99 106.714 29.5004L106.095 28.7152L105.475 27.93C105.256 28.1033 104.968 28.2124 104.55 28.2124V29.2124ZM106.095 28.7152L106.715 29.4992C107.309 29.029 107.732 28.3956 108.008 27.6527L107.071 27.3036L106.134 26.9545C105.961 27.4191 105.732 27.7266 105.474 27.9312L106.095 28.7152ZM107.071 27.3036L108.005 27.6608C108.289 26.9181 108.418 26.0849 108.418 25.1818H107.418H106.418C106.418 25.9004 106.315 26.4817 106.137 26.9465L107.071 27.3036ZM107.418 25.1818H108.418C108.418 24.2817 108.293 23.4529 108.016 22.7168L107.08 23.0689L106.144 23.421C106.317 23.8805 106.418 24.4602 106.418 25.1818H107.418ZM107.08 23.0689L108.016 22.7168C107.738 21.9774 107.312 21.3487 106.711 20.8893L106.104 21.6839L105.497 22.4786C105.747 22.6702 105.973 22.9648 106.144 23.421L107.08 23.0689ZM106.104 21.6839L106.711 20.8893C106.087 20.4127 105.348 20.1957 104.55 20.1957V21.1957V22.1957C104.972 22.1957 105.268 22.3042 105.497 22.4786L106.104 21.6839ZM104.55 21.1957V20.1957C103.737 20.1957 102.986 20.4207 102.358 20.9177L102.979 21.7017L103.599 22.4857C103.824 22.308 104.12 22.1957 104.55 22.1957V21.1957ZM102.979 21.7017L102.358 20.9177C101.764 21.3879 101.343 22.0195 101.072 22.7604L102.011 23.1044L102.95 23.4484C103.116 22.9938 103.341 22.6902 103.599 22.4857L102.979 21.7017ZM102.011 23.1044L101.072 22.7604C100.804 23.491 100.682 24.304 100.682 25.1818H101.682H102.682C102.682 24.4853 102.78 23.9134 102.95 23.4484L102.011 23.1044ZM101.682 25.1818H100.682C100.682 26.0652 100.804 26.8846 101.07 27.6239L102.011 27.2859L102.952 26.9478C102.78 26.4679 102.682 25.8846 102.682 25.1818H101.682ZM102.011 27.2859L101.074 27.635C101.349 28.3736 101.765 29.0058 102.346 29.4808L102.979 28.7063L103.611 27.9319C103.352 27.7203 103.123 27.4055 102.948 26.9368L102.011 27.2859ZM102.979 28.7063L102.358 29.4904C102.986 29.9873 103.737 30.2124 104.55 30.2124V29.2124V28.2124C104.12 28.2124 103.824 28.1001 103.599 27.9223L102.979 28.7063ZM114.22 32H113.22V33H114.22V32ZM114.22 18.3636V17.3636H113.22V18.3636H114.22ZM118.002 18.3636H119.002V17.3636H118.002V18.3636ZM118.002 32V33H119.002V32H118.002ZM114.673 16.0465L113.982 16.7696L113.988 16.7749L113.993 16.7801L114.673 16.0465ZM114.673 13.3477L115.358 14.0762L115.358 14.0759L114.673 13.3477ZM117.558 13.3477L116.868 14.0708L116.873 14.076L116.879 14.0812L117.558 13.3477ZM117.558 16.0465L118.243 16.775L118.244 16.7747L117.558 16.0465ZM114.22 32H115.22V18.3636H114.22H113.22V32H114.22ZM114.22 18.3636V19.3636H118.002V18.3636V17.3636H114.22V18.3636ZM118.002 18.3636H117.002V32H118.002H119.002V18.3636H118.002ZM118.002 32V31H114.22V32V33H118.002V32ZM116.12 16.6058V15.6058C115.803 15.6058 115.565 15.5099 115.353 15.313L114.673 16.0465L113.993 16.7801C114.586 17.3289 115.313 17.6058 116.12 17.6058V16.6058ZM114.673 16.0465L115.364 15.3234C115.156 15.1246 115.078 14.9294 115.078 14.6882H114.078H113.078C113.078 15.5005 113.397 16.2109 113.982 16.7696L114.673 16.0465ZM114.078 14.6882H115.078C115.078 14.457 115.152 14.2696 115.358 14.0762L114.673 13.3477L113.988 12.6191C113.401 13.1714 113.078 13.8778 113.078 14.6882H114.078ZM114.673 13.3477L115.358 14.0759C115.572 13.875 115.808 13.7795 116.12 13.7795V12.7795V11.7795C115.308 11.7795 114.579 12.0627 113.988 12.6195L114.673 13.3477ZM116.12 12.7795V13.7795C116.432 13.7795 116.662 13.8746 116.868 14.0708L117.558 13.3477L118.249 12.6245C117.661 12.0631 116.932 11.7795 116.12 11.7795V12.7795ZM117.558 13.3477L116.879 14.0812C117.089 14.2762 117.162 14.4621 117.162 14.6882H118.162H119.162C119.162 13.8726 118.832 13.1648 118.238 12.6141L117.558 13.3477ZM118.162 14.6882H117.162C117.162 14.9243 117.086 15.1181 116.873 15.3183L117.558 16.0465L118.244 16.7747C118.836 16.2174 119.162 15.5056 119.162 14.6882H118.162ZM117.558 16.0465L116.873 15.318C116.669 15.5102 116.437 15.6058 116.12 15.6058V16.6058V17.6058C116.928 17.6058 117.655 17.3286 118.243 16.775L117.558 16.0465ZM120.41 16.9876H119.41V17.9876H120.41V16.9876ZM120.41 13.8182V12.8182H119.41V13.8182H120.41ZM135.343 13.8182H136.343V12.8182H135.343V13.8182ZM135.343 16.9876V17.9876H136.343V16.9876H135.343ZM129.776 16.9876V15.9876H128.776V16.9876H129.776ZM129.776 32V33H130.776V32H129.776ZM125.977 32H124.977V33H125.977V32ZM125.977 16.9876H126.977V15.9876H125.977V16.9876ZM120.41 16.9876H121.41V13.8182H120.41H119.41V16.9876H120.41ZM120.41 13.8182V14.8182H135.343V13.8182V12.8182H120.41V13.8182ZM135.343 13.8182H134.343V16.9876H135.343H136.343V13.8182H135.343ZM135.343 16.9876V15.9876H129.776V16.9876V17.9876H135.343V16.9876ZM129.776 16.9876H128.776V32H129.776H130.776V16.9876H129.776ZM129.776 32V31H125.977V32V33H129.776V32ZM125.977 32H126.977V16.9876H125.977H124.977V32H125.977ZM125.977 16.9876V15.9876H120.41V16.9876V17.9876H125.977V16.9876ZM138.346 31.4141L137.85 32.2826L137.856 32.286L138.346 31.4141ZM136.02 28.9815L135.131 29.4407L135.132 29.4427L136.02 28.9815ZM136.02 21.5508L135.13 21.0937L135.13 21.0937L136.02 21.5508ZM138.319 19.0739L137.808 18.2146L137.805 18.2159L138.319 19.0739ZM144.329 18.6211L143.979 19.5578L143.988 19.5609L144.329 18.6211ZM146.371 19.9084L145.668 20.6191L145.671 20.6227L146.371 19.9084ZM147.738 22.0746L146.802 22.425L146.803 22.4271L147.738 22.0746ZM148.227 26.1495V27.1495H149.227V26.1495H148.227ZM136.712 26.1495H135.712V27.1495H136.712V26.1495ZM136.712 23.8058V22.8058H135.712V23.8058H136.712ZM144.667 23.8058V24.8058H145.667V23.8058H144.667ZM144.312 22.3587L143.44 22.8495L143.44 22.8495L144.312 22.3587ZM143.326 21.3732L142.821 22.2361L142.828 22.2404L142.835 22.2445L143.326 21.3732ZM140.352 21.4087L140.863 22.2683L140.867 22.2662L140.352 21.4087ZM139.322 22.4652L140.192 22.9588L140.195 22.9538L139.322 22.4652ZM138.941 23.93L137.941 23.9191V23.93H138.941ZM139.313 27.9073L138.421 28.3588L138.425 28.3673L139.313 27.9073ZM143.184 29.2656L142.863 28.3186L142.863 28.3186L143.184 29.2656ZM144.081 28.733L143.391 28.0088L143.391 28.0088L144.081 28.733ZM144.649 27.8629L144.715 26.8651L143.976 26.8164L143.714 27.5083L144.649 27.8629ZM148.147 28.0938L149.125 28.3005L149.364 27.1719L148.213 27.0959L148.147 28.0938ZM147.055 30.2955L146.303 29.6359L146.303 29.6364L147.055 30.2955ZM144.942 31.7514L145.313 32.6799L145.317 32.6786L144.942 31.7514ZM141.968 32.2663V31.2663C140.701 31.2663 139.67 31.0105 138.835 30.5421L138.346 31.4141L137.856 32.286C139.046 32.954 140.429 33.2663 141.968 33.2663V32.2663ZM138.346 31.4141L138.841 30.5455C138.006 30.0686 137.365 29.4008 136.907 28.5203L136.02 28.9815L135.132 29.4427C135.764 30.6575 136.674 31.6113 137.85 32.2826L138.346 31.4141ZM136.02 28.9815L136.908 28.5224C136.451 27.6379 136.203 26.556 136.203 25.244H135.203H134.203C134.203 26.8083 134.499 28.2181 135.131 29.4407L136.02 28.9815ZM135.203 25.244H136.203C136.203 23.9721 136.449 22.9028 136.909 22.0079L136.02 21.5508L135.13 21.0937C134.501 22.3176 134.203 23.7104 134.203 25.244H135.203ZM136.02 21.5508L136.909 22.0079C137.371 21.1086 138.01 20.4244 138.833 19.9318L138.319 19.0739L137.805 18.2159C136.651 18.9071 135.757 19.8741 135.13 21.0937L136.02 21.5508ZM138.319 19.0739L138.831 19.9332C139.647 19.447 140.631 19.1861 141.817 19.1861V18.1861V17.1861C140.328 17.1861 138.979 17.5171 137.808 18.2146L138.319 19.0739ZM141.817 18.1861V19.1861C142.607 19.1861 143.325 19.3131 143.979 19.5577L144.329 18.6211L144.68 17.6845C143.783 17.3491 142.826 17.1861 141.817 17.1861V18.1861ZM144.329 18.6211L143.988 19.5609C144.636 19.7966 145.192 20.1485 145.668 20.6191L146.371 19.9084L147.075 19.1977C146.39 18.52 145.585 18.0138 144.671 17.6813L144.329 18.6211ZM146.371 19.9084L145.671 20.6227C146.14 21.0815 146.521 21.6739 146.802 22.425L147.738 22.0746L148.675 21.7241C148.305 20.7352 147.775 19.8835 147.071 19.1941L146.371 19.9084ZM147.738 22.0746L146.803 22.4271C147.076 23.1538 147.227 24.0416 147.227 25.1108H148.227H149.227C149.227 23.86 149.052 22.7236 148.674 21.722L147.738 22.0746ZM148.227 25.1108H147.227V26.1495H148.227H149.227V25.1108H148.227ZM148.227 26.1495V25.1495H136.712V26.1495V27.1495H148.227V26.1495ZM136.712 26.1495H137.712V23.8058H136.712H135.712V26.1495H136.712ZM136.712 23.8058V24.8058H144.667V23.8058V22.8058H136.712V23.8058ZM144.667 23.8058H145.667C145.667 23.1118 145.514 22.4564 145.183 21.8678L144.312 22.3587L143.44 22.8495C143.582 23.1014 143.667 23.4106 143.667 23.8058H144.667ZM144.312 22.3587L145.183 21.8678C144.856 21.2884 144.396 20.8284 143.817 20.502L143.326 21.3732L142.835 22.2445C143.096 22.3915 143.293 22.5885 143.44 22.8495L144.312 22.3587ZM143.326 21.3732L143.832 20.5103C143.243 20.1654 142.581 20.0092 141.879 20.0092V21.0092V22.0092C142.278 22.0092 142.581 22.0957 142.821 22.2361L143.326 21.3732ZM141.879 21.0092V20.0092C141.144 20.0092 140.453 20.1817 139.838 20.5512L140.352 21.4087L140.867 22.2662C141.139 22.1031 141.466 22.0092 141.879 22.0092V21.0092ZM140.352 21.4087L139.841 20.5492C139.252 20.8992 138.784 21.3792 138.45 21.9766L139.322 22.4652L140.195 22.9538C140.357 22.6634 140.576 22.4391 140.863 22.2683L140.352 21.4087ZM139.322 22.4652L138.453 21.9716C138.115 22.567 137.948 23.2233 137.941 23.9191L138.941 23.93L139.94 23.941C139.945 23.5596 140.033 23.2393 140.192 22.9588L139.322 22.4652ZM138.941 23.93H137.941V26.1584H138.941H139.941V23.93H138.941ZM138.941 26.1584H137.941C137.941 26.9552 138.088 27.6995 138.421 28.3588L139.313 27.9073L140.206 27.4558C140.042 27.1326 139.941 26.711 139.941 26.1584H138.941ZM139.313 27.9073L138.425 28.3673C138.764 29.0215 139.254 29.5443 139.888 29.9099L140.388 29.0437L140.887 28.1775C140.598 28.0104 140.371 27.7756 140.201 27.4473L139.313 27.9073ZM140.388 29.0437L139.888 29.9099C140.528 30.2791 141.254 30.4432 142.03 30.4432V29.4432V28.4432C141.539 28.4432 141.171 28.341 140.887 28.1775L140.388 29.0437ZM142.03 29.4432V30.4432C142.544 30.4432 143.039 30.3706 143.505 30.2127L143.184 29.2656L142.863 28.3186C142.631 28.3974 142.356 28.4432 142.03 28.4432V29.4432ZM143.184 29.2656L143.505 30.2127C143.982 30.0512 144.409 29.8013 144.77 29.4571L144.081 28.733L143.391 28.0088C143.255 28.1381 143.085 28.2433 142.863 28.3186L143.184 29.2656ZM144.081 28.733L144.77 29.4571C145.135 29.11 145.404 28.6909 145.584 28.2176L144.649 27.8629L143.714 27.5083C143.633 27.7215 143.524 27.8824 143.391 28.0088L144.081 28.733ZM144.649 27.8629L144.583 28.8608L148.081 29.0916L148.147 28.0938L148.213 27.0959L144.715 26.8651L144.649 27.8629ZM148.147 28.0938L147.168 27.887C147.025 28.5647 146.737 29.1414 146.303 29.6359L147.055 30.2955L147.807 30.955C148.474 30.1947 148.913 29.3037 149.125 28.3005L148.147 28.0938ZM147.055 30.2955L146.303 29.6364C145.874 30.1259 145.305 30.5261 144.567 30.8243L144.942 31.7514L145.317 32.6786C146.307 32.2783 147.147 31.7079 147.807 30.9545L147.055 30.2955ZM144.942 31.7514L144.571 30.8229C143.853 31.1099 142.992 31.2663 141.968 31.2663V32.2663V33.2663C143.193 33.2663 144.314 33.0794 145.313 32.6799L144.942 31.7514ZM153.252 31.3786L152.739 32.237L152.745 32.2405L153.252 31.3786ZM150.943 28.8928L150.05 29.342L150.052 29.3459L150.943 28.8928ZM150.952 21.5597L150.063 21.1025L150.062 21.1045L150.952 21.5597ZM153.269 19.0827L153.779 19.9434L153.782 19.9411L153.269 19.0827ZM159.963 18.8342L160.398 17.9339L160.398 17.9339L159.963 18.8342ZM162.085 20.6541L161.253 21.2088L162.085 20.6541ZM162.946 23.4062V24.4062H163.998L163.945 23.3558L162.946 23.4062ZM159.377 23.4062L158.388 23.5525L158.514 24.4062H159.377V23.4062ZM158.578 21.7638L157.876 22.476L157.886 22.4856L158.578 21.7638ZM155.365 21.6129L155.952 22.4221L155.954 22.4207L155.365 21.6129ZM154.344 27.4013L153.411 27.7633L153.414 27.7711L154.344 27.4013ZM155.365 28.7951L155.954 27.9873L155.954 27.9873L155.365 28.7951ZM158.063 29.0082L157.61 28.1168L157.604 28.1199L158.063 29.0082ZM158.925 28.2358L158.095 27.6778L158.092 27.6811L158.925 28.2358ZM159.377 27.0018V26.0018H158.515L158.388 26.8552L159.377 27.0018ZM162.946 27.0018L163.945 27.0585L164.005 26.0018H162.946V27.0018ZM162.094 29.7539L161.252 29.2138L161.251 29.2154L162.094 29.7539ZM160.008 31.6005L159.56 30.7061L159.56 30.7061L160.008 31.6005ZM156.856 32.2663V31.2663C155.602 31.2663 154.583 31.0018 153.759 30.5166L153.252 31.3786L152.745 32.2405C153.932 32.939 155.316 33.2663 156.856 33.2663V32.2663ZM153.252 31.3786L153.765 30.5202C152.93 30.0211 152.29 29.3345 151.835 28.4396L150.943 28.8928L150.052 29.3459C150.674 30.5699 151.573 31.5404 152.739 32.2369L153.252 31.3786ZM150.943 28.8928L151.837 28.4435C151.385 27.5446 151.144 26.4835 151.144 25.2351H150.144H149.144C149.144 26.7447 149.437 28.1221 150.05 29.342L150.943 28.8928ZM150.144 25.2351H151.144C151.144 23.9681 151.388 22.9041 151.843 22.0149L150.952 21.5597L150.062 21.1045C149.439 22.3222 149.144 23.7085 149.144 25.2351H150.144ZM150.952 21.5597L151.842 22.0168C152.302 21.1206 152.945 20.4367 153.779 19.9434L153.269 19.0827L152.76 18.2221C151.593 18.9125 150.691 19.8799 150.063 21.1025L150.952 21.5597ZM153.269 19.0827L153.782 19.9411C154.601 19.4518 155.606 19.1861 156.838 19.1861V18.1861V17.1861C155.312 17.1861 153.938 17.5181 152.756 18.2244L153.269 19.0827ZM156.838 18.1861V19.1861C157.907 19.1861 158.794 19.3798 159.528 19.7345L159.963 18.8342L160.398 17.9339C159.345 17.4244 158.149 17.1861 156.838 17.1861V18.1861ZM159.963 18.8342L159.528 19.7345C160.271 20.0934 160.837 20.5847 161.253 21.2088L162.085 20.6541L162.917 20.0994C162.291 19.161 161.443 18.439 160.398 17.9339L159.963 18.8342ZM162.085 20.6541L161.253 21.2088C161.662 21.8222 161.902 22.5605 161.947 23.4567L162.946 23.4062L163.945 23.3558C163.884 22.145 163.55 21.0485 162.917 20.0994L162.085 20.6541ZM162.946 23.4062V22.4062H159.377V23.4062V24.4062H162.946V23.4062ZM159.377 23.4062L160.367 23.26C160.239 22.3942 159.886 21.6323 159.27 21.0421L158.578 21.7638L157.886 22.4856C158.135 22.724 158.315 23.057 158.388 23.5525L159.377 23.4062ZM158.578 21.7638L159.28 21.0518C158.638 20.418 157.811 20.1335 156.9 20.1335V21.1335V22.1335C157.375 22.1335 157.667 22.2693 157.876 22.4759L158.578 21.7638ZM156.9 21.1335V20.1335C156.121 20.1335 155.398 20.3504 154.775 20.8051L155.365 21.6129L155.954 22.4207C156.207 22.2363 156.508 22.1335 156.9 22.1335V21.1335ZM155.365 21.6129L154.777 20.8037C154.162 21.2499 153.722 21.8761 153.425 22.616L154.352 22.989L155.28 23.3619C155.468 22.8945 155.702 22.6033 155.952 22.4221L155.365 21.6129ZM154.352 22.989L153.425 22.616C153.122 23.3695 152.988 24.2345 152.988 25.1818H153.988H154.988C154.988 24.4128 155.098 23.8159 155.28 23.3619L154.352 22.989ZM153.988 25.1818H152.988C152.988 26.1371 153.118 27.007 153.411 27.7633L154.344 27.4013L155.276 27.0393C155.096 26.5763 154.988 25.9666 154.988 25.1818H153.988ZM154.344 27.4013L153.414 27.7711C153.712 28.5188 154.156 29.1509 154.775 29.6029L155.365 28.7951L155.954 27.9873C155.697 27.8001 155.46 27.503 155.273 27.0314L154.344 27.4013ZM155.365 28.7951L154.775 29.6029C155.398 30.0576 156.121 30.2745 156.9 30.2745V29.2745V28.2745C156.508 28.2745 156.207 28.1718 155.954 27.9873L155.365 28.7951ZM156.9 29.2745V30.2745C157.473 30.2745 158.021 30.1557 158.523 29.8964L158.063 29.0082L157.604 28.1199C157.419 28.2158 157.192 28.2745 156.9 28.2745V29.2745ZM158.063 29.0082L158.517 29.8996C159.024 29.6414 159.44 29.2655 159.757 28.7905L158.925 28.2358L158.092 27.6811C157.959 27.8808 157.801 28.0199 157.61 28.1168L158.063 29.0082ZM158.925 28.2358L159.754 28.7938C160.081 28.3075 160.277 27.7499 160.367 27.1483L159.377 27.0018L158.388 26.8552C158.335 27.2124 158.229 27.4776 158.095 27.6778L158.925 28.2358ZM159.377 27.0018V28.0018H162.946V27.0018V26.0018H159.377V27.0018ZM162.946 27.0018L161.948 26.945C161.897 27.8336 161.659 28.5807 161.252 29.2138L162.094 29.7539L162.936 30.294C163.547 29.3409 163.877 28.2533 163.945 27.0585L162.946 27.0018ZM162.094 29.7539L161.251 29.2154C160.852 29.8408 160.297 30.3377 159.56 30.7061L160.008 31.6005L160.455 32.4949C161.494 31.9755 162.33 31.2413 162.937 30.2924L162.094 29.7539ZM160.008 31.6005L159.56 30.7061C158.839 31.0668 157.948 31.2663 156.856 31.2663V32.2663V33.2663C158.191 33.2663 159.401 33.022 160.455 32.4949L160.008 31.6005ZM169.15 24.1165L168.15 24.1064V24.1165H169.15ZM169.15 32V33H170.15V32H169.15ZM165.368 32H164.368V33H165.368V32ZM165.368 13.8182V12.8182H164.368V13.8182H165.368ZM169.043 13.8182H170.043V12.8182H169.043V13.8182ZM169.043 20.7695H168.043V21.7695H169.043V20.7695ZM169.203 20.7695V21.7695H169.891L170.137 21.1267L169.203 20.7695ZM170.694 18.8786L171.247 19.7117L171.252 19.7084L170.694 18.8786ZM175.755 18.8075L175.248 19.6695L175.256 19.6744L175.755 18.8075ZM177.406 20.5742L176.514 21.0269L176.519 21.0351L177.406 20.5742ZM177.992 23.3175L176.992 23.3119V23.3175H177.992ZM177.992 32V33H178.992V32H177.992ZM174.21 32H173.21V33H174.21V32ZM174.21 23.9922L173.21 23.9851V23.9922H174.21ZM173.571 22.0302L172.832 22.7038L172.836 22.7089L173.571 22.0302ZM170.41 21.6573L169.927 20.7819L169.921 20.785L170.41 21.6573ZM169.487 22.6161L168.605 22.1442L168.603 22.1488L169.487 22.6161ZM169.15 24.1165H168.15V32H169.15H170.15V24.1165H169.15ZM169.15 32V31H165.368V32V33H169.15V32ZM165.368 32H166.368V13.8182H165.368H164.368V32H165.368ZM165.368 13.8182V14.8182H169.043V13.8182V12.8182H165.368V13.8182ZM169.043 13.8182H168.043V20.7695H169.043H170.043V13.8182H169.043ZM169.043 20.7695V21.7695H169.203V20.7695V19.7695H169.043V20.7695ZM169.203 20.7695L170.137 21.1267C170.374 20.5067 170.743 20.0468 171.247 19.7117L170.694 18.8786L170.141 18.0454C169.273 18.6217 168.647 19.4225 168.269 20.4124L169.203 20.7695ZM170.694 18.8786L171.252 19.7084C171.737 19.3827 172.391 19.1861 173.278 19.1861V18.1861V17.1861C172.093 17.1861 171.025 17.4511 170.136 18.0487L170.694 18.8786ZM173.278 18.1861V19.1861C174.075 19.1861 174.72 19.3591 175.248 19.6695L175.755 18.8075L176.262 17.9456C175.381 17.4274 174.374 17.1861 173.278 17.1861V18.1861ZM175.755 18.8075L175.256 19.6744C175.789 19.9806 176.207 20.4211 176.514 21.0269L177.406 20.5742L178.298 20.1215C177.824 19.1885 177.141 18.4512 176.253 17.9406L175.755 18.8075ZM177.406 20.5742L176.519 21.0351C176.825 21.6242 176.997 22.3708 176.992 23.3119L177.992 23.3175L178.992 23.323C178.999 22.1334 178.781 21.0512 178.293 20.1133L177.406 20.5742ZM177.992 23.3175H176.992V32H177.992H178.992V23.3175H177.992ZM177.992 32V31H174.21V32V33H177.992V32ZM174.21 32H175.21V23.9922H174.21H173.21V32H174.21ZM174.21 23.9922L175.21 23.9992C175.217 22.9883 174.959 22.059 174.305 21.3515L173.571 22.0302L172.836 22.7089C173.047 22.9365 173.215 23.3152 173.21 23.9851L174.21 23.9922ZM173.571 22.0302L174.31 21.3566C173.654 20.637 172.762 20.3288 171.777 20.3288V21.3288V22.3288C172.331 22.3288 172.635 22.4882 172.832 22.7038L173.571 22.0302ZM171.777 21.3288V20.3288C171.117 20.3288 170.491 20.4706 169.927 20.7819L170.41 21.6573L170.894 22.5327C171.123 22.4061 171.408 22.3288 171.777 22.3288V21.3288ZM170.41 21.6573L169.921 20.785C169.353 21.1034 168.914 21.5672 168.605 22.1442L169.487 22.6161L170.369 23.088C170.51 22.8247 170.686 22.6492 170.899 22.5296L170.41 21.6573ZM169.487 22.6161L168.603 22.1488C168.293 22.735 168.157 23.4001 168.15 24.1064L169.15 24.1165L170.15 24.1266C170.154 23.661 170.243 23.3258 170.371 23.0834L169.487 22.6161Z" fill="black" mask="url(#path-4-inside-1_2_10)"/>
</svg>
