<svg width="649" height="155" viewBox="0 0 649 155" fill="none" xmlns="http://www.w3.org/2000/svg">
<path d="M63.8636 10C98.0314 10 125.728 37.9402 125.728 72.4083V116.094C125.728 121.06 123.773 125.822 120.292 129.333C116.812 132.844 112.091 134.817 107.169 134.817H66.9568V107.438C66.9568 101.191 67.3342 94.7192 70.5821 89.4021C72.9074 85.5916 76.0181 82.3301 79.7028 79.8389C83.3875 77.3478 87.5601 75.6853 91.9377 74.964L93.1226 74.7706C93.611 74.6021 94.0349 74.2838 94.3351 73.8602C94.6353 73.4367 94.7967 72.929 94.7967 72.4083C94.7967 71.8876 94.6353 71.3799 94.3351 70.9563C94.0349 70.5328 93.611 70.2145 93.1226 70.046L91.9377 69.8525C85.5415 68.7986 79.635 65.7444 75.0522 61.1213C70.4694 56.4982 67.4421 50.5399 66.3971 44.0874L66.2053 42.8924C66.0383 42.3997 65.7228 41.9718 65.3029 41.6689C64.883 41.3661 64.3798 41.2033 63.8636 41.2033C63.3475 41.2033 62.8445 41.3661 62.4246 41.6689C62.0047 41.9718 61.6892 42.3997 61.5222 42.8924L61.3304 44.0874C60.6157 48.5037 58.9677 52.713 56.4982 56.4301C54.0288 60.1475 50.7954 63.2853 47.0179 65.6307C41.747 68.9072 35.3317 69.2879 29.1391 69.2879H2.07344C3.6912 36.2708 30.7352 10 63.8636 10Z" fill="#5F6FFF"/>
<path d="M2 75.5287H29.0564C35.23 75.5287 41.6256 75.9094 46.8802 79.1858C50.9877 81.747 54.4452 85.2457 56.9762 89.4021C60.2141 94.7192 60.5903 101.191 60.5903 107.438V134.817H20.5022C15.5951 134.817 10.889 132.844 7.41916 129.333C3.94933 125.822 2 121.06 2 116.094V75.5287ZM125.348 16.2408C125.348 17.896 124.698 19.4834 123.542 20.6538C122.385 21.8241 120.816 22.4817 119.181 22.4817C117.545 22.4817 115.976 21.8241 114.82 20.6538C113.663 19.4834 113.013 17.896 113.013 16.2408C113.013 14.5857 113.663 12.9983 114.82 11.8279C115.976 10.6575 117.545 10 119.181 10C120.816 10 122.385 10.6575 123.542 11.8279C124.698 12.9983 125.348 14.5857 125.348 16.2408Z" fill="#5F6FFF"/>
<path d="M146.068 53.1818H164.273L183.5 100.091H184.318L203.545 53.1818H221.75V123H207.432V77.5568H206.852L188.784 122.659H179.034L160.966 77.3864H160.386V123H146.068V53.1818ZM257.503 124.023C252.116 124.023 247.48 122.932 243.594 120.75C239.73 118.545 236.753 115.432 234.662 111.409C232.571 107.364 231.526 102.58 231.526 97.0568C231.526 91.6705 232.571 86.9432 234.662 82.875C236.753 78.8068 239.696 75.6364 243.491 73.3636C247.31 71.0909 251.787 69.9545 256.923 69.9545C260.378 69.9545 263.594 70.5114 266.571 71.625C269.571 72.7159 272.185 74.3636 274.412 76.5682C276.662 78.7727 278.412 81.5455 279.662 84.8864C280.912 88.2045 281.537 92.0909 281.537 96.5455V100.534H237.321V91.5341H267.866C267.866 89.4432 267.412 87.5909 266.503 85.9773C265.594 84.3636 264.332 83.1023 262.719 82.1932C261.128 81.2614 259.276 80.7955 257.162 80.7955C254.957 80.7955 253.003 81.3068 251.298 82.3295C249.616 83.3295 248.298 84.6818 247.344 86.3864C246.389 88.0682 245.901 89.9432 245.878 92.0114V100.568C245.878 103.159 246.355 105.398 247.31 107.284C248.287 109.17 249.662 110.625 251.435 111.648C253.207 112.67 255.31 113.182 257.741 113.182C259.355 113.182 260.832 112.955 262.173 112.5C263.514 112.045 264.662 111.364 265.616 110.455C266.571 109.545 267.298 108.432 267.798 107.114L281.23 108C280.548 111.227 279.151 114.045 277.037 116.455C274.946 118.841 272.241 120.705 268.923 122.045C265.628 123.364 261.821 124.023 257.503 124.023ZM310.31 123.852C306.332 123.852 302.73 122.83 299.503 120.784C296.298 118.716 293.753 115.682 291.866 111.682C290.003 107.659 289.071 102.727 289.071 96.8864C289.071 90.8864 290.037 85.8977 291.969 81.9205C293.901 77.9205 296.469 74.9318 299.673 72.9545C302.901 70.9545 306.435 69.9545 310.276 69.9545C313.207 69.9545 315.651 70.4545 317.605 71.4545C319.582 72.4318 321.173 73.6591 322.378 75.1364C323.605 76.5909 324.537 78.0227 325.173 79.4318H325.616V53.1818H340.105V123H325.787V114.614H325.173C324.491 116.068 323.526 117.511 322.276 118.943C321.048 120.352 319.446 121.523 317.469 122.455C315.514 123.386 313.128 123.852 310.31 123.852ZM314.912 112.295C317.253 112.295 319.23 111.659 320.844 110.386C322.48 109.091 323.73 107.284 324.594 104.966C325.48 102.648 325.923 99.9318 325.923 96.8182C325.923 93.7045 325.491 91 324.628 88.7045C323.764 86.4091 322.514 84.6364 320.878 83.3864C319.241 82.1364 317.253 81.5114 314.912 81.5114C312.526 81.5114 310.514 82.1591 308.878 83.4545C307.241 84.75 306.003 86.5455 305.162 88.8409C304.321 91.1364 303.901 93.7955 303.901 96.8182C303.901 99.8636 304.321 102.557 305.162 104.898C306.026 107.216 307.264 109.034 308.878 110.352C310.514 111.648 312.526 112.295 314.912 112.295ZM352.045 123V70.6364H366.568V123H352.045ZM359.341 63.8864C357.182 63.8864 355.33 63.1705 353.784 61.7386C352.261 60.2841 351.5 58.5455 351.5 56.5227C351.5 54.5227 352.261 52.8068 353.784 51.375C355.33 49.9205 357.182 49.1932 359.341 49.1932C361.5 49.1932 363.341 49.9205 364.864 51.375C366.409 52.8068 367.182 54.5227 367.182 56.5227C367.182 58.5455 366.409 60.2841 364.864 61.7386C363.341 63.1705 361.5 63.8864 359.341 63.8864ZM375.815 65.3523V53.1818H433.156V65.3523H411.781V123H397.19V65.3523H375.815ZM458.597 124.023C453.21 124.023 448.574 122.932 444.688 120.75C440.824 118.545 437.847 115.432 435.756 111.409C433.665 107.364 432.619 102.58 432.619 97.0568C432.619 91.6705 433.665 86.9432 435.756 82.875C437.847 78.8068 440.79 75.6364 444.585 73.3636C448.403 71.0909 452.881 69.9545 458.017 69.9545C461.472 69.9545 464.688 70.5114 467.665 71.625C470.665 72.7159 473.278 74.3636 475.506 76.5682C477.756 78.7727 479.506 81.5455 480.756 84.8864C482.006 88.2045 482.631 92.0909 482.631 96.5455V100.534H438.415V91.5341H468.96C468.96 89.4432 468.506 87.5909 467.597 85.9773C466.688 84.3636 465.426 83.1023 463.812 82.1932C462.222 81.2614 460.369 80.7955 458.256 80.7955C456.051 80.7955 454.097 81.3068 452.392 82.3295C450.71 83.3295 449.392 84.6818 448.438 86.3864C447.483 88.0682 446.994 89.9432 446.972 92.0114V100.568C446.972 103.159 447.449 105.398 448.403 107.284C449.381 109.17 450.756 110.625 452.528 111.648C454.301 112.67 456.403 113.182 458.835 113.182C460.449 113.182 461.926 112.955 463.267 112.5C464.608 112.045 465.756 111.364 466.71 110.455C467.665 109.545 468.392 108.432 468.892 107.114L482.324 108C481.642 111.227 480.244 114.045 478.131 116.455C476.04 118.841 473.335 120.705 470.017 122.045C466.722 123.364 462.915 124.023 458.597 124.023ZM515.767 124.023C510.403 124.023 505.79 122.886 501.926 120.614C498.085 118.318 495.131 115.136 493.062 111.068C491.017 107 489.994 102.318 489.994 97.0227C489.994 91.6591 491.028 86.9545 493.097 82.9091C495.188 78.8409 498.153 75.6705 501.994 73.3977C505.835 71.1023 510.403 69.9545 515.699 69.9545C520.267 69.9545 524.267 70.7841 527.699 72.4432C531.131 74.1023 533.847 76.4318 535.847 79.4318C537.847 82.4318 538.949 85.9545 539.153 90H525.449C525.063 87.3864 524.04 85.2841 522.381 83.6932C520.744 82.0795 518.597 81.2727 515.938 81.2727C513.688 81.2727 511.722 81.8864 510.04 83.1136C508.381 84.3182 507.085 86.0795 506.153 88.3977C505.222 90.7159 504.756 93.5227 504.756 96.8182C504.756 100.159 505.21 103 506.119 105.341C507.051 107.682 508.358 109.466 510.04 110.693C511.722 111.92 513.688 112.534 515.938 112.534C517.597 112.534 519.085 112.193 520.403 111.511C521.744 110.83 522.847 109.841 523.71 108.545C524.597 107.227 525.176 105.648 525.449 103.807H539.153C538.926 107.807 537.835 111.33 535.881 114.375C533.949 117.398 531.278 119.761 527.869 121.466C524.46 123.17 520.426 124.023 515.767 124.023ZM562.974 92.7273V123H548.452V53.1818H562.565V79.875H563.179C564.361 76.7841 566.27 74.3636 568.906 72.6136C571.543 70.8409 574.849 69.9545 578.827 69.9545C582.463 69.9545 585.634 70.75 588.338 72.3409C591.065 73.9091 593.179 76.1705 594.679 79.125C596.202 82.0568 596.952 85.5682 596.929 89.6591V123H582.406V92.25C582.429 89.0227 581.611 86.5114 579.952 84.7159C578.315 82.9205 576.02 82.0227 573.065 82.0227C571.088 82.0227 569.338 82.4432 567.815 83.2841C566.315 84.125 565.134 85.3523 564.27 86.9659C563.429 88.5568 562.997 90.4773 562.974 92.7273Z" fill="#000B6D"/>
</svg>
